<?xml version="1.0" encoding="utf-8"?>
<svg viewBox="-505.326 -0.509 2042.157 500.509" xmlns="http://www.w3.org/2000/svg">
  <rect y="11.888" width="475.064" height="475.064" style="fill: rgb(4, 102, 200);" x="12.468"/>
  <path d="M -0.977 30.779 C -0.977 13.5 13.031 -0.509 30.311 -0.509 L 468.338 -0.509 C 485.617 -0.509 499.626 13.5 499.626 30.779 L 499.626 468.806 C 499.626 486.086 485.617 500.094 468.338 500.094 L 30.311 500.094 C 13.031 500.094 -0.977 486.086 -0.977 468.806 L -0.977 30.779 Z M 124.173 30.779 L 124.173 218.506 L 374.474 218.506 L 374.474 30.779 L 124.173 30.779 Z M 374.474 281.081 L 124.173 281.081 L 124.173 468.806 L 374.474 468.806 L 374.474 281.081 Z M 30.311 30.779 L 30.311 93.354 L 92.886 93.354 L 92.886 30.779 L 30.311 30.779 Z M 92.886 124.641 L 30.311 124.641 L 30.311 187.217 L 92.886 187.217 L 92.886 124.641 Z M 30.311 218.506 L 30.311 281.081 L 92.886 281.081 L 92.886 218.506 L 30.311 218.506 Z M 92.886 312.369 L 30.311 312.369 L 30.311 374.944 L 92.886 374.944 L 92.886 312.369 Z M 30.311 406.231 L 30.311 468.806 L 92.886 468.806 L 92.886 406.231 L 30.311 406.231 Z M 468.338 30.779 L 405.762 30.779 L 405.762 93.354 L 468.338 93.354 L 468.338 30.779 Z M 405.762 124.641 L 405.762 187.217 L 468.338 187.217 L 468.338 124.641 L 405.762 124.641 Z M 468.338 218.506 L 405.762 218.506 L 405.762 281.081 L 468.338 281.081 L 468.338 218.506 Z M 405.762 312.369 L 405.762 374.944 L 468.338 374.944 L 468.338 312.369 L 405.762 312.369 Z M 468.338 406.231 L 405.762 406.231 L 405.762 468.806 L 468.338 468.806 L 468.338 406.231 Z" style="fill: rgb(3, 54, 109);"/>
  <rect x="124.641" y="206.246" width="249.367" height="82.291" style="fill: rgb(4, 102, 200);"/>
  <path d="M 347.398 180.308 L 361.218 124.888 L 469.348 124.888 L 455.528 180.308 L 442.008 180.308 L 339.938 387.778 L 238.908 387.778 L 244.548 241.808 L 241.168 241.808 L 172.338 387.778 L 71.308 387.778 L 69.308 180.308 L 55.788 180.308 L 69.608 124.888 L 194.628 124.888 L 180.818 180.308 L 167.978 180.308 L 159.668 266.468 L 163.048 266.468 L 230.448 124.888 L 327.768 124.888 L 322.198 266.468 L 325.578 266.468 L 360.238 180.308 L 347.398 180.308 Z" transform="matrix(1, 0, 0, 1, 0, 0)" style="fill: rgb(255, 255, 255); white-space: pre;"/>
  <path d="M 483.308 387.035 L 435.657 387.035 L 438.713 374.762 L 438.714 374.76 C 435.112 378.612 430.555 382.036 425.056 385.05 C 419.544 388.04 413.372 389.562 406.513 389.562 C 397.496 389.562 391.007 387.158 387.012 382.349 C 383.041 377.524 382.144 370.734 384.335 361.952 C 387.173 350.576 394.17 342.012 405.256 336.135 C 416.376 330.321 431.613 327.231 450.999 326.93 L 450.998 326.936 C 450.998 326.935 450.999 326.932 450.999 326.93 C 451.331 324.881 451.302 323.152 450.848 321.765 C 450.458 320.367 449.611 319.316 448.411 318.549 C 446.003 317.038 441.5 316.281 434.887 316.281 C 429.472 316.281 423.524 316.849 417.042 317.99 C 410.56 319.136 405.972 320.306 400.895 321.92 L 398.84 322.574 L 407.116 289.386 L 407.838 289.222 C 414.397 287.734 421.121 286.559 428.822 285.597 C 436.524 284.635 443.923 284.153 451.024 284.153 C 468.951 284.153 480.891 287.463 487.038 293.9 C 493.037 300.472 494.462 310.441 491.069 324.042 L 482.742 357.434 L 490.684 357.434 L 483.308 387.035 Z M 445.92 345.887 L 446.185 344.799 L 446.189 344.799 C 440.773 344.799 436.412 345.521 433.101 346.966 C 429.78 348.414 427.718 350.824 426.88 354.203 C 426.362 356.249 426.596 357.856 427.534 359.141 C 428.529 360.411 430.132 361.044 432.396 361.044 C 435.524 361.044 438.295 359.75 440.603 357.073 C 442.964 354.442 444.717 350.698 445.92 345.887 Z" style="fill: rgb(255, 255, 255); white-space: pre;"/>
  <path d="M 454.559 362.362 L 461.159 362.362 L 454.78 387.962 L 414.149 387.962 L 416.402 378.914 C 413.599 381.621 410.824 383.733 406.219 386.251 C 401.589 388.782 396.328 390.062 390.569 390.062 C 382.982 390.062 377.386 387.955 373.973 383.88 C 370.618 379.754 369.829 373.884 371.654 366.491 C 374.059 356.944 379.971 349.615 389.291 344.719 C 398.587 339.837 411.152 337.312 427.108 337.019 C 427.311 335.558 427.276 334.465 426.936 333.368 C 426.601 332.288 426.042 331.528 425.112 330.965 C 423.217 329.747 419.608 329.162 414.149 329.162 C 409.673 329.162 404.773 329.63 399.406 330.574 C 394.037 331.524 389.031 332.791 384.35 334.385 L 383.482 334.681 L 390.658 305.894 L 390.956 305.825 C 396.597 304.522 402.635 303.467 409.047 302.666 C 415.462 301.864 421.643 301.462 427.559 301.462 C 442.524 301.462 452.711 304.224 457.854 309.72 C 463.006 315.226 464.149 323.839 461.324 335.233 Z M 453.279 363.362 L 460.354 334.991 C 463.169 323.785 462.078 315.698 457.124 310.404 C 452.161 305.1 442.394 302.462 427.559 302.462 C 421.675 302.462 415.556 302.86 409.171 303.658 C 402.783 304.457 397.007 305.465 391.48 306.731 L 384.895 333.149 C 389.367 331.677 393.827 330.546 399.232 329.59 C 404.638 328.64 409.625 328.162 414.149 328.162 C 419.69 328.162 423.565 328.831 425.645 330.118 C 426.707 330.803 427.506 331.828 427.891 333.072 C 428.271 334.297 428.312 335.845 428.033 337.592 L 427.966 338.006 L 427.547 338.012 C 411.482 338.257 398.928 340.787 389.756 345.605 C 380.61 350.409 374.932 357.38 372.624 366.733 C 370.809 373.94 371.5 379.37 374.745 383.244 C 377.946 387.169 383.156 389.062 390.569 389.062 C 396.21 389.062 401.223 387.842 405.739 385.373 C 410.28 382.891 414.003 380.092 416.964 376.92 L 418.28 375.51 L 415.429 386.962 L 453.998 386.962 L 459.879 363.362 Z M 419.273 362.893 C 417.263 365.166 414.788 366.362 412.079 366.362 C 410.088 366.362 408.541 365.718 407.639 364.582 C 406.804 363.418 406.582 361.834 407.014 360.041 C 407.76 357.138 409.627 354.97 412.469 353.704 C 415.275 352.486 418.998 351.865 423.539 351.862 L 424.176 351.862 L 424.025 352.481 L 423.804 353.383 C 422.787 357.43 421.266 360.641 419.273 362.893 Z M 422.834 353.142 L 422.901 352.866 C 418.742 352.916 415.557 353.438 412.869 354.62 C 410.206 355.754 408.624 357.585 407.984 360.282 C 407.563 361.889 407.7 363.052 408.439 363.981 C 409.123 364.952 410.27 365.362 412.079 365.362 C 414.57 365.362 416.641 364.359 418.525 362.231 C 420.426 360.083 421.85 357.095 422.834 353.142 Z M 495.719 390.062 C 485.036 390.062 477.506 387.376 473.327 382.142 C 469.206 376.855 468.647 367.966 471.694 355.691 L 478.309 329.162 L 471.709 329.162 L 478.089 303.561 L 478.479 303.562 C 482.204 303.574 485.139 302.653 487.443 300.745 C 489.773 298.862 491.306 296.322 492.124 292.991 L 493.909 285.862 L 526.739 285.862 L 522.319 303.562 L 542.569 303.562 L 536.19 329.162 L 515.94 329.162 L 509.904 353.384 C 509.084 356.61 509.169 358.833 510.192 360.25 C 511.137 361.711 512.91 362.362 515.719 362.362 C 519.493 362.362 523.709 361.918 528.415 361.021 L 529.183 360.875 L 523.059 385.443 L 522.807 385.533 C 519.711 386.64 515.643 387.673 510.643 388.623 C 505.633 389.579 500.643 390.062 495.719 390.062 Z M 510.455 387.641 C 515.426 386.697 519.201 385.739 522.219 384.68 L 527.836 362.146 C 523.39 362.954 519.545 363.362 515.719 363.362 C 512.728 363.362 510.542 362.459 509.367 360.815 C 508.256 359.138 508.1 356.514 508.934 353.14 L 515.064 328.541 L 515.158 328.162 L 535.408 328.162 L 541.289 304.562 L 521.039 304.562 L 525.459 286.862 L 494.689 286.862 L 493.094 293.233 C 492.218 296.702 490.517 299.508 488.075 301.519 C 485.605 303.517 482.574 304.479 478.871 304.557 L 472.989 328.162 L 479.589 328.162 L 472.664 355.933 C 469.631 368.058 470.098 376.515 474.111 381.522 C 478.064 386.594 485.202 389.062 495.719 389.062 C 500.595 389.062 505.491 388.591 510.455 387.641 Z M 571.169 390.062 C 556.783 390.062 546.366 386.233 540.113 378.71 C 533.918 371.127 532.581 360.031 536.154 345.641 C 539.75 331.27 546.552 320.254 556.468 312.733 C 566.404 305.247 578.585 301.462 592.859 301.462 C 599.796 301.462 606.236 302.427 612.104 304.337 C 617.963 306.25 622.409 308.445 625.358 310.877 L 625.601 311.077 L 618.02 341.462 L 591.187 341.462 L 591.344 340.84 L 592.024 338.141 C 592.837 334.912 592.773 332.682 591.801 331.256 C 590.906 329.805 589.109 329.162 586.199 329.162 C 583.379 329.162 581.18 329.902 579.404 331.44 C 577.621 332.983 576.367 335.243 575.594 338.383 L 572.374 351.283 C 571.406 355.09 571.765 357.759 573.41 359.604 C 575.063 361.459 577.944 362.362 582.319 362.362 C 590.596 362.362 600.434 361.466 611.871 359.668 L 612.617 359.551 L 606.492 384.082 L 606.254 384.177 C 602.451 385.686 597.295 387.049 590.83 388.254 C 584.361 389.457 577.792 390.062 571.169 390.062 Z M 590.648 387.27 C 597.075 386.075 601.925 384.794 605.646 383.341 L 611.281 360.772 C 600.126 362.497 590.642 363.362 582.319 363.362 C 577.794 363.362 574.487 362.315 572.663 360.27 C 570.831 358.215 570.425 355.034 571.404 351.041 L 574.624 338.141 C 575.444 334.881 576.835 332.341 578.749 330.684 C 580.669 329.022 583.219 328.162 586.199 328.162 C 589.289 328.162 591.504 329.065 592.637 330.708 C 593.691 332.388 593.821 335.012 592.994 338.383 L 592.471 340.462 L 617.238 340.462 L 624.477 311.449 C 621.628 309.161 617.587 307.174 611.794 305.287 C 606.008 303.397 599.722 302.462 592.859 302.462 C 578.733 302.462 566.854 306.123 557.07 313.531 C 547.278 320.916 540.66 331.654 537.124 345.883 C 533.563 360.093 534.8 370.751 540.885 378.074 C 546.924 385.445 556.955 389.062 571.169 389.062 C 577.746 389.062 584.223 388.467 590.648 387.27 Z M 710.908 362.362 L 717.508 362.362 L 711.129 387.962 L 662.698 387.962 L 669.077 362.362 L 675.377 362.362 L 681.423 338.141 C 682.236 334.912 682.173 332.682 681.2 331.256 C 680.302 329.804 678.604 329.162 675.898 329.162 C 672.976 329.162 670.7 329.905 668.873 331.444 C 667.042 332.988 665.766 335.245 664.993 338.383 L 659.008 362.362 L 665.308 362.362 L 658.929 387.962 L 610.498 387.962 L 616.877 362.362 L 623.477 362.362 L 640.058 295.862 L 633.458 295.862 L 639.847 270.262 L 681.978 270.262 L 671.01 314.252 C 675.48 310.195 679.574 307.282 684.485 304.96 C 689.412 302.642 694.805 301.462 700.558 301.462 C 708.964 301.462 714.76 304.215 717.726 309.521 C 720.611 314.832 720.924 322.162 718.643 331.333 Z M 709.628 363.362 L 717.673 331.091 C 719.94 322.062 719.673 315.092 716.85 310.003 C 714.11 304.909 708.752 302.462 700.558 302.462 C 694.911 302.462 689.732 303.582 684.911 305.864 C 680.076 308.142 675.282 311.547 670.462 316.125 L 669.218 317.307 L 680.698 271.262 L 640.629 271.262 L 634.738 294.862 L 641.338 294.862 L 624.259 363.362 L 617.659 363.362 L 611.778 386.962 L 658.147 386.962 L 664.028 363.362 L 657.728 363.362 L 664.023 338.141 C 664.844 334.879 666.263 332.336 668.229 330.68 C 670.198 329.019 672.82 328.162 675.898 328.162 C 678.792 328.162 680.908 329.066 682.036 330.708 C 683.091 332.388 683.22 335.012 682.393 338.383 L 676.253 362.983 L 676.159 363.362 L 669.859 363.362 L 663.978 386.962 L 710.347 386.962 L 716.228 363.362 Z M 714.858 388.112 L 721.277 362.362 L 727.877 362.362 L 744.458 295.862 L 737.858 295.862 L 744.247 270.262 L 786.378 270.262 L 763.408 362.362 L 770.008 362.362 L 763.589 388.112 Z M 768.728 363.362 L 762.128 363.362 L 785.098 271.262 L 745.029 271.262 L 739.138 294.862 L 745.738 294.862 L 728.659 363.362 L 722.059 363.362 L 716.138 387.112 L 762.807 387.112 Z M 797.448 296.312 L 803.947 270.262 L 835.578 270.262 L 829.079 296.312 Z M 834.298 271.262 L 804.729 271.262 L 798.728 295.312 L 828.297 295.312 Z M 767.398 387.962 L 773.777 362.362 L 780.377 362.362 L 788.658 329.162 L 782.058 329.162 L 788.437 303.562 L 830.568 303.562 L 815.908 362.362 L 822.508 362.362 L 816.129 387.962 Z M 821.228 363.362 L 814.628 363.362 L 829.288 304.562 L 789.219 304.562 L 783.338 328.162 L 789.938 328.162 L 781.159 363.362 L 774.559 363.362 L 768.678 386.962 L 815.347 386.962 Z M 855.868 390.062 C 843.226 390.062 831.484 388.043 820.733 384.03 L 820.315 383.874 L 826.057 360.862 L 851.39 360.862 L 851.233 361.485 L 850.853 362.983 C 850.26 365.279 850.54 366.807 851.662 367.905 C 852.803 369.021 854.746 369.562 857.728 369.562 C 860.375 369.562 862.383 369.129 863.895 368.243 C 865.39 367.368 866.304 366.153 866.723 364.391 C 866.966 363.444 866.982 362.697 866.8 362.016 C 866.621 361.346 866.291 360.861 865.703 360.408 C 864.467 359.458 862.067 358.644 858.375 357.953 L 851.216 356.604 C 843.635 355.175 838.285 352.154 835.405 347.604 C 832.526 343.056 832.046 336.871 833.923 329.291 C 836.137 320.503 841.232 313.601 849.096 308.736 C 856.966 303.907 866.597 301.462 877.858 301.462 C 890.409 301.462 900.557 303.599 908.181 307.825 L 908.516 308.011 L 903.129 329.612 L 879.3 329.612 L 879.453 328.992 L 879.823 327.491 C 880.32 325.599 880.094 324.316 879.08 323.401 C 878.098 322.409 876.429 321.962 873.898 321.962 C 871.448 321.962 869.599 322.336 868.215 323.1 C 866.852 323.852 866.038 324.876 865.683 326.384 C 865.477 327.177 865.473 327.794 865.641 328.373 C 865.806 328.944 866.095 329.37 866.632 329.765 C 867.739 330.629 869.977 331.432 873.443 332.223 L 881.576 333.872 C 890.123 335.599 895.854 338.87 898.601 343.562 C 901.287 348.269 901.743 354.354 899.943 361.633 C 897.638 370.817 892.622 377.917 885.006 382.784 C 877.386 387.616 867.628 390.062 855.868 390.062 Z M 884.47 381.94 C 891.946 377.207 896.744 370.407 898.973 361.391 C 900.759 354.27 900.355 348.555 897.735 344.062 C 895.174 339.554 889.779 336.525 881.38 334.852 L 873.239 333.202 C 869.709 332.393 867.264 331.496 866.024 330.559 C 865.382 330.055 864.891 329.38 864.68 328.651 C 864.471 327.931 864.492 327.047 864.713 326.141 C 865.158 324.449 866.194 323.072 867.731 322.224 C 869.247 321.388 871.348 320.962 873.898 320.962 C 876.567 320.962 878.583 321.569 879.775 322.682 C 880.933 323.862 881.296 325.625 880.793 327.733 L 880.576 328.612 L 902.347 328.612 L 907.36 308.514 C 899.916 304.464 890.307 302.462 877.858 302.462 C 866.719 302.462 857.35 304.817 849.62 309.588 C 841.896 314.323 837.025 320.921 834.893 329.533 C 833.03 336.953 833.496 342.718 836.25 347.07 C 839.004 351.42 843.974 354.249 851.4 355.62 L 858.561 356.971 C 862.321 357.68 864.949 358.566 866.313 359.616 C 867.025 360.163 867.545 360.928 867.766 361.758 C 867.984 362.577 867.95 363.58 867.693 364.633 C 867.192 366.571 866.066 368.131 864.401 369.106 C 862.753 370.07 860.481 370.562 857.728 370.562 C 854.61 370.562 852.276 369.903 850.963 368.619 C 849.632 367.317 849.282 365.245 849.883 362.741 L 850.106 361.862 L 826.839 361.862 L 821.501 383.249 C 832.046 387.133 843.31 389.062 855.868 389.062 C 867.508 389.062 876.996 386.708 884.47 381.94 Z M 934.317 390.062 C 923.634 390.062 916.105 387.376 911.925 382.142 C 907.805 376.855 907.245 367.966 910.292 355.691 L 916.907 329.162 L 910.307 329.162 L 916.687 303.561 L 917.077 303.562 C 920.802 303.574 923.738 302.653 926.041 300.745 C 928.372 298.862 929.905 296.322 930.722 292.991 L 932.507 285.862 L 965.337 285.862 L 960.917 303.562 L 981.167 303.562 L 974.788 329.162 L 954.538 329.162 L 948.502 353.383 C 947.683 356.61 947.768 358.833 948.79 360.25 C 949.735 361.711 951.508 362.362 954.317 362.362 C 958.091 362.362 962.308 361.918 967.013 361.021 L 967.781 360.874 L 961.657 385.443 L 961.406 385.533 C 958.31 386.64 954.243 387.673 949.241 388.623 C 944.232 389.579 939.241 390.062 934.317 390.062 Z M 949.053 387.641 C 954.025 386.697 957.8 385.74 960.817 384.681 L 966.434 362.146 C 961.989 362.954 958.143 363.362 954.317 363.362 C 951.326 363.362 949.14 362.459 947.965 360.815 C 946.855 359.138 946.699 356.514 947.532 353.141 L 953.662 328.541 L 953.756 328.162 L 974.006 328.162 L 979.887 304.562 L 959.637 304.562 L 964.057 286.862 L 933.287 286.862 L 931.692 293.233 C 930.817 296.702 929.116 299.508 926.673 301.519 C 924.204 303.517 921.172 304.479 917.469 304.557 L 911.587 328.162 L 918.187 328.162 L 911.262 355.933 C 908.229 368.058 908.697 376.515 912.709 381.522 C 916.663 386.594 923.8 389.062 934.317 389.062 C 939.193 389.062 944.09 388.591 949.053 387.641 Z" style="fill: none;"/>
  <line style="stroke: rgb(0, 0, 0);" x1="499.688" y1="284.98326903023934" x2="499.6259967684746" y2="391.02301025390625"/>
  <path d="M 531.358 387.714 C 518.609 387.714 509.8 384.635 504.896 378.426 C 499.997 372.22 499.374 361.779 503.033 347.102 L 511.179 314.433 L 503.237 314.433 L 510.609 284.844 L 511.507 284.81 C 515.703 284.652 518.894 283.667 521.773 281.312 C 524.648 278.965 526.597 275.749 527.616 271.655 L 529.649 263.534 L 536.059 263.534 L 567.914 263.534 L 562.596 284.832 L 586.962 284.832 L 579.587 314.433 L 555.219 314.433 L 547.844 344.027 C 546.849 347.989 547.002 350.893 548.278 352.786 C 549.593 354.653 551.953 355.586 555.424 355.586 C 559.995 355.586 564.008 355.156 568.99 354.294 L 570.811 353.978 L 563.75 382.304 L 563.133 382.515 C 559.523 383.756 555.204 384.853 549.203 385.993 C 544.721 386.85 540.482 387.44 536.059 387.657 C 534.56 387.731 532.85 387.714 531.358 387.714 Z M 622.147 387.714 C 604.944 387.714 592.65 383.235 585.246 374.278 C 577.856 365.304 576.304 352.216 580.596 335.011 C 584.888 317.804 592.962 304.713 604.821 295.744 C 616.686 286.784 631.161 282.305 648.247 282.305 C 656.548 282.305 664.204 283.447 671.217 285.734 C 678.227 288.021 682.89 290.317 686.356 293.001 L 686.972 293.479 L 678.053 329.233 L 647.007 329.233 L 647.384 327.737 L 647.823 325.99 C 648.813 322.028 648.685 319.115 647.472 317.217 C 646.208 315.359 643.824 314.433 640.233 314.433 C 636.743 314.433 633.856 315.362 631.662 317.32 C 629.415 319.214 627.85 322.128 626.888 325.985 L 623.016 341.498 C 621.844 346.199 622.225 349.791 624.395 352.066 C 626.425 354.47 630.21 355.586 635.564 355.586 C 645.55 355.586 656.4 354.595 669.431 352.613 L 671.217 352.342 L 664.141 380.68 L 663.556 380.904 C 659.083 382.616 653.452 384.104 645.696 385.547 C 637.938 386.992 630.089 387.714 622.147 387.714 Z M 790.091 385.187 L 733.054 385.187 L 740.431 355.586 L 748.011 355.586 L 755.397 325.99 C 756.386 322.028 756.261 319.118 755.048 317.22 C 753.788 315.359 751.517 314.433 748.168 314.433 C 744.558 314.433 741.583 315.361 739.327 317.319 C 737.02 319.214 735.424 322.128 734.462 325.985 L 727.074 355.586 L 734.655 355.586 L 727.278 385.187 L 670.242 385.187 L 677.618 355.586 L 685.56 355.586 L 705.811 274.363 L 697.87 274.363 L 705.258 244.762 L 754.713 244.762 L 741.212 298.911 L 741.211 298.911 C 747.044 293.375 752.89 289.226 758.754 286.457 C 764.622 283.69 770.983 282.305 777.841 282.305 C 787.82 282.305 794.52 285.41 797.966 291.68 C 801.404 297.947 801.756 306.554 799.019 317.501 L 789.525 355.586 L 797.467 355.586 L 790.091 385.187 Z M 795.819 385.368 L 803.242 355.586 L 811.184 355.586 L 831.436 274.363 L 823.494 274.363 L 830.882 244.762 L 880.338 244.762 L 852.698 355.586 L 860.64 355.586 L 853.215 385.368 L 795.819 385.368 Z M 895.199 274.905 L 902.719 244.762 L 939.541 244.762 L 932.02 274.905 L 895.199 274.905 Z M 859.04 385.187 L 866.416 355.586 L 874.358 355.586 L 884.622 314.433 L 876.68 314.433 L 884.056 284.832 L 933.512 284.832 L 915.872 355.586 L 923.814 355.586 L 916.437 385.187 L 859.04 385.187 Z M 964.725 387.714 C 949.565 387.714 936.272 385.432 923.676 380.869 L 922.656 380.5 L 929.324 353.78 L 958.561 353.78 L 958.185 355.276 L 958.113 355.567 C 957.392 358.471 957.689 360.726 959.243 362.083 C 960.67 363.58 963.295 364.249 966.964 364.249 C 970.213 364.249 972.803 363.718 974.689 362.579 C 976.61 361.517 977.807 359.826 978.367 357.582 C 978.671 356.367 978.726 355.302 978.461 354.412 C 978.253 353.501 977.729 352.733 976.927 352.156 C 975.382 350.928 972.339 349.93 967.854 349.087 L 959.242 347.464 C 950.21 345.779 944.058 342.219 940.612 336.904 C 937.281 331.514 936.651 324.37 938.902 315.34 C 941.517 304.869 947.509 296.747 956.889 290.971 C 966.279 285.194 977.71 282.305 991.186 282.305 C 1006.228 282.305 1017.573 284.682 1026.555 289.434 L 1027.385 289.873 L 1021.124 314.974 L 993.691 314.974 L 994.057 313.484 L 994.128 313.193 C 994.736 310.788 994.373 308.976 993.09 307.684 C 991.75 306.408 989.534 305.768 986.422 305.768 C 983.413 305.768 981.024 306.227 979.292 307.213 C 977.53 308.122 976.448 309.582 975.956 311.529 C 975.697 312.566 975.655 313.484 975.907 314.252 C 976.095 315.035 976.591 315.676 977.305 316.233 C 978.729 317.319 981.562 318.35 985.762 319.308 L 995.538 321.291 C 1005.732 323.335 1012.418 327.108 1015.619 332.653 C 1018.815 338.195 1019.336 345.294 1017.178 353.956 C 1014.449 364.909 1008.55 373.27 999.467 379.048 C 990.384 384.826 978.803 387.714 964.725 387.714 Z M 1059.123 387.714 C 1046.374 387.714 1037.57 384.616 1032.662 378.426 C 1027.763 372.22 1027.139 361.777 1030.797 347.102 L 1038.944 314.433 L 1031.002 314.433 L 1038.375 284.844 L 1039.273 284.81 C 1043.468 284.652 1046.661 283.667 1049.538 281.312 C 1052.414 278.965 1054.363 275.749 1055.381 271.655 L 1057.416 263.534 L 1095.68 263.534 L 1090.361 284.832 L 1114.728 284.832 L 1107.352 314.433 L 1082.984 314.433 L 1075.611 344.027 C 1074.616 347.989 1074.769 350.894 1076.043 352.786 C 1077.358 354.653 1079.718 355.586 1083.189 355.586 C 1087.76 355.586 1091.775 355.156 1096.755 354.294 L 1098.576 353.978 L 1091.515 382.304 L 1090.898 382.515 C 1087.29 383.756 1082.968 384.853 1076.967 385.993 C 1070.967 387.14 1065.02 387.714 1059.123 387.714 Z" style="white-space: pre; fill: rgb(3, 54, 109);"/>
</svg>