<?xml version="1.0" encoding="utf-8"?>
<svg viewBox="0 0 500 500" xmlns="http://www.w3.org/2000/svg">
  <rect y="11.888" width="475.064" height="475.064" style="fill: rgb(4, 102, 200);" x="12.468"/>
  <path d="M -0.977 30.779 C -0.977 13.5 13.031 -0.509 30.311 -0.509 L 468.338 -0.509 C 485.617 -0.509 499.626 13.5 499.626 30.779 L 499.626 468.806 C 499.626 486.086 485.617 500.094 468.338 500.094 L 30.311 500.094 C 13.031 500.094 -0.977 486.086 -0.977 468.806 L -0.977 30.779 Z M 124.173 30.779 L 124.173 218.506 L 374.474 218.506 L 374.474 30.779 L 124.173 30.779 Z M 374.474 281.081 L 124.173 281.081 L 124.173 468.806 L 374.474 468.806 L 374.474 281.081 Z M 30.311 30.779 L 30.311 93.354 L 92.886 93.354 L 92.886 30.779 L 30.311 30.779 Z M 92.886 124.641 L 30.311 124.641 L 30.311 187.217 L 92.886 187.217 L 92.886 124.641 Z M 30.311 218.506 L 30.311 281.081 L 92.886 281.081 L 92.886 218.506 L 30.311 218.506 Z M 92.886 312.369 L 30.311 312.369 L 30.311 374.944 L 92.886 374.944 L 92.886 312.369 Z M 30.311 406.231 L 30.311 468.806 L 92.886 468.806 L 92.886 406.231 L 30.311 406.231 Z M 468.338 30.779 L 405.762 30.779 L 405.762 93.354 L 468.338 93.354 L 468.338 30.779 Z M 405.762 124.641 L 405.762 187.217 L 468.338 187.217 L 468.338 124.641 L 405.762 124.641 Z M 468.338 218.506 L 405.762 218.506 L 405.762 281.081 L 468.338 281.081 L 468.338 218.506 Z M 405.762 312.369 L 405.762 374.944 L 468.338 374.944 L 468.338 312.369 L 405.762 312.369 Z M 468.338 406.231 L 405.762 406.231 L 405.762 468.806 L 468.338 468.806 L 468.338 406.231 Z" style="fill: rgb(3, 54, 109);"/>
  <rect x="124.641" y="206.246" width="249.367" height="82.291" style="fill: rgb(4, 102, 200);"/>
  <path d="M 347.398 180.308 L 361.218 124.888 L 469.348 124.888 L 455.528 180.308 L 442.008 180.308 L 339.938 387.778 L 238.908 387.778 L 244.548 241.808 L 241.168 241.808 L 172.338 387.778 L 71.308 387.778 L 69.308 180.308 L 55.788 180.308 L 69.608 124.888 L 194.628 124.888 L 180.818 180.308 L 167.978 180.308 L 159.668 266.468 L 163.048 266.468 L 230.448 124.888 L 327.768 124.888 L 322.198 266.468 L 325.578 266.468 L 360.238 180.308 L 347.398 180.308 Z" transform="matrix(1, 0, 0, 1, 0, 0)" style="fill: rgb(255, 255, 255); white-space: pre;"/>
</svg>